# xmcd
#
# Track frame offsets: 
#        150
#        19964
#        39210
#        59022
#        76810
#        94160
#        113117
#        132861
#        152853
#        176863
#
# Disc length: 2517 seconds
#
# Revision: 0
# Processed by: cddbd v1.5.2PL0 Copyright (c) Steve Scherf et al.
# Submitted via: ExactAudioCopy v1.0b6
#
DISCID=7f09d30a
DTITLE=Xavier Naidoo - Nicht Von Dieser Welt 2
DYEAR=2016
DGENRE=Acoustic
TTITLE0=Renaissance Der Liebe
TTITLE1=Das Lass Ich Nicht Zu
TTITLE2=Der Fels
TTITLE3=Ich Will Leben
TTITLE4=Kopf Featuring Moses Pellham
TTITLE5=Frei
TTITLE6=Das Prinzip
TTITLE7=Latein
TTITLE8=Wiedersehen
TTITLE9=Amazing Grace
EXTD=
EXTT0=
EXTT1=
EXTT2=
EXTT3=
EXTT4=
EXTT5=
EXTT6=
EXTT7=
EXTT8=
EXTT9=
PLAYORDER=
